<svg width="64" height="70" viewBox="0 0 64 70" fill="none" xmlns="http://www.w3.org/2000/svg">
<path d="M31.5126 69.7874C30.2208 69.7874 28.912 69.4506 27.7562 68.7939L3.75635 55.0696C1.44475 53.7393 0 51.2639 0 48.6201V21.1716C0 18.5277 1.44475 16.0523 3.75635 14.722L27.7562 0.997745C30.0678 -0.332582 32.9573 -0.332582 35.2689 0.997745L59.2688 14.722C61.5804 16.0523 63.0251 18.5109 63.0251 21.1716V48.6201C63.0251 51.2639 61.5804 53.7393 59.2688 55.0696L35.2689 68.7939C34.1131 69.4506 32.8043 69.7874 31.5126 69.7874ZM31.5126 5.05608C31.0876 5.05608 30.6797 5.15712 30.3058 5.37603L6.30591 19.1003C5.55804 19.5213 5.09912 20.3127 5.09912 21.1716V48.6201C5.09912 49.4789 5.55804 50.2703 6.30591 50.6913L30.3058 64.4156C31.0536 64.8366 31.9715 64.8366 32.7194 64.4156L56.7022 50.6913C57.4501 50.2703 57.909 49.4789 57.909 48.6201V21.1716C57.909 20.3127 57.4501 19.5213 56.7022 19.1003L32.7194 5.37603C32.3454 5.15712 31.9205 5.05608 31.5126 5.05608Z" fill="#004177"/>
<path d="M27.4163 52.6113C27.4163 54.7499 26.6514 55.8613 25.1217 55.9455C23.592 56.0297 21.5353 55.3225 18.9348 53.8406L10.3853 48.9571V27.3351L18.4249 31.9323C19.9206 32.7911 21.2464 33.751 22.4192 34.8119C23.592 35.8728 24.4928 37.0179 25.1557 38.2135C25.8186 39.4091 26.1585 40.6215 26.1585 41.8508C26.1585 42.8949 25.8696 43.6527 25.3087 44.0905C24.7478 44.5283 23.9829 44.6967 22.9971 44.562C24.2379 45.7071 25.2917 46.9701 26.1245 48.3509C26.9914 49.7317 27.4163 51.1463 27.4163 52.6113ZM17.847 35.637L15.6713 34.3909V38.9376L17.847 40.1837C18.7648 40.7057 19.4617 40.9078 19.9716 40.7731C20.4645 40.6384 20.7195 40.2174 20.7195 39.4933C20.7195 38.7692 20.4645 38.0788 19.9716 37.4052C19.4617 36.7653 18.7478 36.159 17.847 35.637ZM15.6543 47.9299L18.3399 49.4623C19.3597 50.0517 20.2096 50.338 20.9064 50.3211C21.6033 50.3043 21.9433 49.7823 21.9433 48.755C21.9433 47.812 21.6033 46.9364 20.9064 46.1618C20.2096 45.3871 19.3597 44.6967 18.3399 44.1242L15.6543 42.5918V47.9299V47.9299Z" fill="#FFD88C"/>
<path d="M37.2405 36.0581L42.6966 32.9427V41.4636L50.1243 28.6823L56.3282 25.1292L47.4728 40.3353L56.8042 46.4986L50.4133 50.1528L42.7136 45.1009V54.5648L37.2575 57.6801V36.0581H37.2405Z" fill="#FFD88C"/>
</svg>
